<?xml version="1.0" encoding="utf-8"?>
<!-- Generator: Adobe Illustrator 15.1.0, SVG Export Plug-In . SVG Version: 6.00 Build 0)  -->
<!DOCTYPE svg PUBLIC "-//W3C//DTD SVG 1.1//EN" "http://www.w3.org/Graphics/SVG/1.1/DTD/svg11.dtd">
<svg version="1.1" id="Layer_1" xmlns="http://www.w3.org/2000/svg" xmlns:xlink="http://www.w3.org/1999/xlink" x="0px" y="0px"
	 width="425.2px" height="99px" viewBox="0 0 425.2 99" enable-background="new 0 0 425.2 99" xml:space="preserve">
<g>
	<rect x="40.862" y="12.785" fill="#010101" width="96.859" height="77.233"/>
	<circle fill="#F26822" cx="18.816" cy="28.773" r="13.512"/>
	<path fill="#F26822" d="M31.048,83.789c0,5.656-4.585,10.241-10.241,10.241h-5.832c-5.656,0-10.241-4.584-10.241-10.241V56.338
		c0-5.655,4.585-10.241,10.241-10.241h5.832c5.655,0,10.241,4.585,10.241,10.241V83.789z"/>
	<rect x="56.03" y="26.202" fill="none" width="69.385" height="47.219"/>
	<text transform="matrix(1 0 0 1 62.7671 69.2124)" fill="#F26822" font-family="'Accuratist'" font-size="61.4436">ae</text>
	<g>
		<path d="M168.116,40.523c-3.139,0-5.652-0.947-7.546-2.841c-1.895-1.89-2.841-4.407-2.841-7.546s0.946-5.656,2.841-7.55
			c1.894-1.893,4.408-2.84,7.546-2.84h8.313v-2.077c0-1.387-0.462-2.54-1.386-3.464c-0.924-0.921-2.08-1.383-3.467-1.383h-9V6.59h9
			c3.326,0,6.002,1.014,8.031,3.046c2.036,2.031,3.055,4.708,3.055,8.033v22.854H168.116z M168.116,25.979
			c-1.2,0-2.192,0.392-2.981,1.178c-0.784,0.786-1.172,1.777-1.172,2.979c0,1.2,0.388,2.192,1.172,2.976
			c0.789,0.786,1.781,1.178,2.981,1.178h8.313v-8.311H168.116z"/>
		<path d="M218.671,30.479V6.59h6.234v33.934h-6.928l-9.001-16.274l-9.001,16.274h-6.93V12.823h-4.849V6.59h11.08v23.89
			l6.933-12.463h5.535L218.671,30.479z"/>
		<path d="M233.218,18.76c0-1.767,0.303-3.398,0.935-4.895c0.621-1.496,1.488-2.787,2.594-3.877c1.104-1.088,2.423-1.936,3.943-2.55
			c1.528-0.612,3.19-0.919,4.99-0.919c1.797,0,3.466,0.304,4.986,0.907c1.521,0.606,2.841,1.446,3.946,2.522
			c1.108,1.074,1.971,2.353,2.597,3.83c0.626,1.479,0.935,3.095,0.935,4.839v8.402h-18.692v1.73c0,1.57,0.528,2.886,1.588,3.948
			s2.377,1.592,3.946,1.592h11.08v6.234h-11.08c-1.754,0-3.35-0.282-4.781-0.849c-1.431-0.569-2.658-1.362-3.702-2.381
			c-1.035-1.021-1.843-2.231-2.423-3.638c-0.58-1.406-0.861-2.97-0.861-4.695V18.76z M245.68,12.751
			c-1.757,0-3.231,0.562-4.432,1.677c-1.201,1.119-1.797,2.495-1.797,4.125v2.578h12.459v-2.578c0-1.63-0.602-3.006-1.797-4.125
			C248.907,13.313,247.43,12.751,245.68,12.751z"/>
		<path d="M279.127,33.112c0.789-0.784,1.179-1.776,1.179-2.976c0-0.877-0.423-1.57-1.279-2.08c-0.856-0.507-1.93-0.958-3.225-1.35
			c-1.29-0.392-2.678-0.806-4.152-1.246c-1.478-0.438-2.862-1.014-4.155-1.732c-1.295-0.715-2.366-1.626-3.223-2.733
			c-0.851-1.11-1.279-2.564-1.279-4.365c0-1.477,0.241-2.826,0.727-4.049c0.482-1.224,1.177-2.286,2.079-3.188
			c0.897-0.898,1.962-1.592,3.185-2.077c1.223-0.484,2.569-0.726,4.052-0.726h11.424v6.233h-11.424
			c-1.065,0-1.965,0.369-2.699,1.107c-0.743,0.739-1.111,1.641-1.111,2.7c0,0.879,0.423,1.57,1.279,2.08
			c0.856,0.508,1.93,0.958,3.226,1.35c1.29,0.391,2.678,0.809,4.151,1.246c1.478,0.439,2.865,1.018,4.155,1.733
			c1.296,0.716,2.366,1.625,3.223,2.733c0.851,1.111,1.279,2.564,1.279,4.365c0,3.139-0.943,5.656-2.832,7.546
			c-1.895,1.895-4.415,2.841-7.554,2.841h-12.468V34.29h12.468C277.352,34.29,278.344,33.898,279.127,33.112z"/>
		<path d="M317.7,28.234c0,1.826-0.31,3.494-0.938,5.01c-0.617,1.514-1.496,2.818-2.623,3.908c-1.133,1.092-2.488,1.936-4.052,2.54
			c-1.575,0.6-3.304,0.901-5.198,0.901c-1.893,0-3.624-0.301-5.19-0.901c-1.572-0.604-2.919-1.448-4.058-2.54
			c-1.127-1.09-2.008-2.395-2.626-3.908c-0.626-1.517-0.938-3.184-0.938-5.01v-9.355c0-1.827,0.312-3.495,0.938-5.011
			c0.618-1.513,1.499-2.818,2.626-3.909c1.139-1.089,2.485-1.935,4.058-2.538c1.566-0.6,3.298-0.902,5.19-0.902
			c1.895,0,3.623,0.302,5.198,0.902c1.563,0.603,2.919,1.448,4.052,2.538c1.127,1.091,2.006,2.396,2.623,3.909
			c0.629,1.516,0.938,3.184,0.938,5.011V28.234z M298.311,28.141c0,1.832,0.609,3.328,1.838,4.482
			c1.217,1.159,2.802,1.736,4.74,1.736c1.938,0,3.523-0.578,4.745-1.736c1.223-1.155,1.832-2.651,1.832-4.482v-9.17
			c0-1.831-0.609-3.328-1.832-4.484c-1.222-1.158-2.808-1.736-4.745-1.736c-1.938,0-3.523,0.578-4.74,1.736
			c-1.229,1.156-1.838,2.653-1.838,4.484V28.141z"/>
		<path d="M332.939,10.447c0-0.043,0.169-0.274,0.519-0.688c0.344-0.414,0.851-0.86,1.522-1.341
			c0.664-0.479,1.499-0.916,2.491-1.311c0.992-0.392,2.136-0.589,3.426-0.589c1.477,0,2.751,0.285,3.808,0.854
			c1.068,0.57,1.963,1.195,2.708,1.88c0.826,0.82,1.545,1.73,2.141,2.73c0.743-1,1.572-1.911,2.496-2.73
			c0.784-0.685,1.754-1.31,2.908-1.88c1.155-0.569,2.47-0.854,3.952-0.854c1.284,0,2.534,0.285,3.734,0.852
			c1.201,0.566,2.271,1.361,3.22,2.378c0.946,1.023,1.702,2.246,2.253,3.675c0.553,1.428,0.829,2.981,0.829,4.659v22.442h-6.229
			V18.171c0-1.536-0.522-2.821-1.559-3.86c-1.043-1.04-2.249-1.559-3.637-1.559c-0.971,0-1.849,0.152-2.632,0.454
			c-0.783,0.304-1.482,0.625-2.079,0.967c-0.693,0.417-1.319,0.888-1.87,1.42v24.931h-6.236V18.171c0-1.536-0.518-2.821-1.553-3.86
			c-1.038-1.04-2.255-1.559-3.638-1.559c-0.967,0-1.846,0.152-2.631,0.454c-0.789,0.304-1.475,0.625-2.079,0.967
			c-0.694,0.417-1.314,0.888-1.865,1.42v24.931h-6.236V12.823h-4.846V6.59h11.082V10.447z"/>
		<path d="M377.262,18.76c0-1.767,0.309-3.398,0.935-4.895c0.621-1.496,1.485-2.787,2.591-3.877c1.111-1.088,2.424-1.936,3.952-2.55
			c1.525-0.612,3.185-0.919,4.986-0.919c1.8,0,3.462,0.304,4.984,0.907c1.526,0.606,2.841,1.446,3.949,2.522
			c1.111,1.074,1.973,2.353,2.6,3.83c0.62,1.479,0.935,3.095,0.935,4.839v8.402h-18.701v1.73c0,1.57,0.528,2.886,1.589,3.948
			c1.067,1.063,2.379,1.592,3.951,1.592h11.082v6.234h-11.082c-1.751,0-3.348-0.282-4.778-0.849
			c-1.431-0.569-2.664-1.362-3.705-2.381c-1.035-1.021-1.846-2.231-2.42-3.638c-0.58-1.406-0.867-2.97-0.867-4.695V18.76z
			 M389.726,12.751c-1.759,0-3.233,0.562-4.428,1.677c-1.206,1.119-1.806,2.495-1.806,4.125v2.578h12.468v-2.578
			c0-1.63-0.602-3.006-1.806-4.125C392.954,13.313,391.479,12.751,389.726,12.751z"/>
	</g>
	<g>
		<path d="M157.729,72.212c0-1.769,0.309-3.398,0.936-4.895c0.625-1.498,1.487-2.788,2.597-3.878
			c1.104-1.088,2.424-1.935,3.946-2.549c1.521-0.612,3.189-0.918,4.981-0.918c1.802,0,3.466,0.303,4.994,0.905
			c1.522,0.607,2.84,1.447,3.945,2.523c1.106,1.073,1.973,2.353,2.592,3.83c0.632,1.48,0.937,3.095,0.937,4.838v8.405h-18.695v1.729
			c0,1.571,0.53,2.887,1.594,3.949c1.06,1.063,2.379,1.591,3.945,1.591h11.081v6.234h-11.081c-1.758,0-3.347-0.282-4.779-0.849
			c-1.432-0.569-2.665-1.36-3.709-2.382c-1.036-1.019-1.841-2.23-2.424-3.637c-0.573-1.405-0.86-2.97-0.86-4.694V72.212z
			 M170.189,66.203c-1.746,0-3.229,0.561-4.43,1.677c-1.201,1.119-1.797,2.495-1.797,4.126v2.578h12.461v-2.578
			c0-1.631-0.597-3.007-1.798-4.126C173.425,66.764,171.947,66.203,170.189,66.203z"/>
		<path d="M206.903,60.042v-8.31h-4.854v-6.235h11.08v48.478h-12.459c-1.759,0-3.349-0.288-4.781-0.866
			c-1.431-0.579-2.669-1.385-3.708-2.423c-1.038-1.04-1.848-2.272-2.423-3.705s-0.867-3.023-0.867-4.78V71.815
			c0-1.708,0.292-3.293,0.867-4.747c0.575-1.453,1.385-2.698,2.423-3.739c1.038-1.04,2.277-1.846,3.708-2.423
			c1.433-0.578,3.022-0.865,4.781-0.865H206.903z M195.122,82.201c0,1.571,0.531,2.887,1.596,3.949s2.377,1.591,3.952,1.591h6.233
			V66.272h-6.233c-1.575,0-2.887,0.531-3.952,1.594s-1.596,2.379-1.596,3.949V82.201z"/>
		<path d="M242.217,60.042h6.232v33.933h-13.16c-1.752,0-3.347-0.288-4.779-0.866c-1.43-0.579-2.664-1.385-3.702-2.423
			c-1.037-1.04-1.849-2.272-2.423-3.705c-0.582-1.433-0.867-3.023-0.867-4.78V66.272h-4.848v-6.231h11.078v22.159
			c0,1.571,0.531,2.887,1.59,3.949c1.067,1.063,2.381,1.591,3.951,1.591h6.928V60.042z"/>
		<path d="M256.756,72.33c0-1.827,0.317-3.494,0.937-5.011c0.625-1.513,1.5-2.817,2.634-3.909c1.131-1.089,2.484-1.935,4.052-2.538
			c1.564-0.6,3.302-0.901,5.195-0.901c2.356,0,4.271,0.387,5.748,1.16c1.477,0.775,2.625,1.632,3.46,2.569
			c0.971,1.08,1.709,2.298,2.216,3.658l-5.191,2.923c-0.325-0.77-0.766-1.453-1.318-2.041c-0.507-0.496-1.149-0.959-1.938-1.391
			c-0.788-0.434-1.781-0.646-2.976-0.646c-1.939,0-3.523,0.576-4.746,1.736c-1.224,1.156-1.836,2.652-1.836,4.482v9.17
			c0,1.832,0.612,3.327,1.836,4.484c1.223,1.157,2.807,1.734,4.746,1.734c1.194,0,2.188-0.205,2.976-0.615
			c0.789-0.412,1.432-0.859,1.938-1.332c0.553-0.563,0.993-1.214,1.318-1.949l5.191,2.922c-0.507,1.373-1.245,2.587-2.216,3.639
			c-0.835,0.916-1.983,1.737-3.46,2.472c-1.477,0.731-3.392,1.098-5.748,1.098c-1.894,0-3.631-0.301-5.195-0.903
			c-1.567-0.602-2.921-1.447-4.052-2.538c-1.134-1.091-2.009-2.395-2.634-3.91c-0.619-1.515-0.937-3.183-0.937-5.008V72.33z"/>
		<path d="M294.851,93.975c-3.14,0-5.652-0.946-7.547-2.841c-1.893-1.889-2.842-4.407-2.842-7.548c0-3.139,0.949-5.654,2.842-7.548
			c1.895-1.895,4.407-2.839,7.547-2.839h8.312v-2.078c0-1.388-0.461-2.54-1.384-3.464c-0.926-0.921-2.081-1.385-3.468-1.385h-9.001
			v-6.231h9.001c3.325,0,6.003,1.014,8.03,3.046c2.037,2.03,3.056,4.708,3.056,8.033v22.854H294.851z M294.851,79.431
			c-1.2,0-2.192,0.392-2.982,1.179c-0.783,0.785-1.171,1.778-1.171,2.976c0,1.202,0.388,2.192,1.171,2.979
			c0.79,0.786,1.782,1.176,2.982,1.176h8.312v-8.31H294.851z"/>
		<path d="M320.478,66.272h-6.234v-6.231h6.234V48.96h6.231v11.081h6.922v6.231h-6.922v15.928c0,1.571,0.531,2.887,1.591,3.949
			s2.377,1.591,3.945,1.591h3.466v6.234h-3.466c-1.754,0-3.349-0.288-4.78-0.866c-1.431-0.579-2.658-1.385-3.702-2.423
			c-1.038-1.04-1.844-2.272-2.424-3.705s-0.861-3.023-0.861-4.78V66.272z"/>
		<path d="M344.022,87.741V66.272h-4.852v-6.231h11.081v27.699h6.232v6.234h-18.693v-6.234H344.022z M350.252,52.42h-6.229v-6.923
			h6.229V52.42z"/>
		<path d="M385.572,81.686c0,1.825-0.316,3.494-0.937,5.008c-0.62,1.515-1.498,2.819-2.633,3.91
			c-1.133,1.091-2.483,1.937-4.052,2.538c-1.566,0.602-3.303,0.903-5.195,0.903c-1.894,0-3.62-0.301-5.19-0.903
			c-1.573-0.602-2.919-1.447-4.052-2.538c-1.128-1.091-2.007-2.395-2.628-3.91c-0.63-1.515-0.935-3.183-0.935-5.008V72.33
			c0-1.827,0.305-3.494,0.935-5.011c0.621-1.513,1.5-2.817,2.628-3.909c1.133-1.089,2.479-1.935,4.052-2.538
			c1.57-0.6,3.297-0.901,5.19-0.901c1.893,0,3.629,0.301,5.195,0.901c1.568,0.603,2.919,1.449,4.052,2.538
			c1.135,1.091,2.013,2.396,2.633,3.909c0.62,1.518,0.937,3.185,0.937,5.011V81.686z M366.185,81.592
			c0,1.832,0.606,3.327,1.831,4.484c1.222,1.157,2.801,1.734,4.74,1.734c1.938,0,3.527-0.577,4.744-1.734
			c1.229-1.157,1.838-2.652,1.838-4.484v-9.17c0-1.831-0.609-3.327-1.838-4.482c-1.217-1.16-2.807-1.736-4.744-1.736
			c-1.939,0-3.519,0.576-4.74,1.736c-1.225,1.156-1.831,2.652-1.831,4.482V81.592z"/>
		<path d="M400.805,63.898c0.558-0.742,1.246-1.397,2.081-1.965c0.686-0.478,1.555-0.927,2.593-1.341
			c1.036-0.412,2.253-0.621,3.64-0.621s2.699,0.284,3.945,0.851c1.246,0.566,2.356,1.36,3.325,2.376
			c0.97,1.025,1.729,2.247,2.287,3.675c0.553,1.428,0.824,2.981,0.824,4.659v22.441h-6.227V71.623c0-1.534-0.535-2.821-1.597-3.859
			c-1.06-1.041-2.377-1.56-3.945-1.56c-1.064,0-2.019,0.152-2.874,0.454c-0.856,0.304-1.584,0.626-2.188,0.968
			c-0.731,0.416-1.357,0.886-1.865,1.419v24.931h-6.232V66.272h-4.847v-6.231h11.079V63.898z"/>
	</g>
</g>
</svg>
